<?xml version="1.0" encoding="UTF-8" standalone="no"?>
<!-- Created with Inkscape (http://www.inkscape.org/) -->

<svg
   width="106.29042mm"
   height="94.005241mm"
   viewBox="0 0 106.29042 94.005241"
   version="1.1"
   id="svg5"
   xml:space="preserve"
   inkscape:version="1.2.1 (9c6d41e410, 2022-07-14)"
   xmlns:inkscape="http://www.inkscape.org/namespaces/inkscape"
   xmlns:sodipodi="http://sodipodi.sourceforge.net/DTD/sodipodi-0.dtd"
   xmlns="http://www.w3.org/2000/svg"
   xmlns:svg="http://www.w3.org/2000/svg"><sodipodi:namedview
     id="namedview7"
     pagecolor="#ffffff"
     bordercolor="#000000"
     borderopacity="0.25"
     inkscape:showpageshadow="2"
     inkscape:pageopacity="0.0"
     inkscape:pagecheckerboard="0"
     inkscape:deskcolor="#d1d1d1"
     inkscape:document-units="mm"
     showgrid="false" /><defs
     id="defs2"><rect
       x="291.32797"
       y="665.74097"
       width="247.1338"
       height="58.336304"
       id="rect3677" /></defs><g
     inkscape:label="Lager 1"
     inkscape:groupmode="layer"
     id="layer1"
     transform="translate(-43.03267,-36.983691)"><g
       id="layer2"
       style="display:inline"
       transform="translate(-8.8221197,-75.250111)"><g
         inkscape:groupmode="layer"
         id="layer3"
         inkscape:label="Layer 1"
         transform="translate(8.8221197,75.250111)" /><path
         style="display:inline;fill:#ffffff;fill-opacity:1;stroke:#ffffff;stroke-width:1.01083;stroke-linecap:butt;stroke-linejoin:miter;stroke-dasharray:none;stroke-opacity:1"
         d="M 53.074967,112.73922 62.122388,121.78664 V 163.81194 L 71.694712,173.38425 V 145.8476 H 88.080072 V 163.8772 H 114.04775 V 173.71197 L 123.88178,183.54602 V 163.68072 H 138.5017 C 156.63819,163.30899 156.8528,146.44606 156.72846,145.45465 156.05738,131.10466 144.33729,127.61289 138.8301,127.55627 H 114.17825 V 154.96099 H 97.734142 V 136.86616 H 71.694712 V 121.91786 H 156.92496 L 147.74557,112.73922 Z M 123.81581,136.86616 H 138.69886 C 142.02747,136.87447 147.37639,139.19771 147.41859,145.58587 147.0759,152.85513 141.88374,155.18787 137.97751,155.02696 H 123.81581 Z"
         id="path969"
         inkscape:export-filename="flpmusic-logo.svg"
         inkscape:export-xdpi="96"
         inkscape:export-ydpi="96" /><g
         aria-label="FLP MUSIC"
         transform="matrix(0.67388602,0,0,0.67388602,-174.62758,-258.56727)"
         id="text3675"
         style="font-weight:300;font-size:26.6667px;font-family:'Built Titling';-inkscape-font-specification:'Built Titling Light';text-align:center;letter-spacing:8.79px;white-space:pre;shape-inside:url(#rect3677);display:inline;fill:#ffffff;stroke:#000000;stroke-width:0;stroke-linecap:round;stroke-linejoin:round;stroke-miterlimit:4.7;stroke-dashoffset:978.161;paint-order:stroke fill markers"><path
           d="M 353.10782,689.3936 V 679.95359 H 356.44116 V 678.54025 H 353.10782 V 670.67357 H 356.52116 V 669.20691 H 351.66782 V 689.3936 Z"
           style="stroke:none"
           id="path612" /><path
           d="M 371.23117,689.3936 V 687.8736 H 368.0045 V 669.20691 H 366.5645 V 689.3936 Z"
           style="stroke:none"
           id="path614" /><path
           d="M 382.6345,689.3936 V 682.64692 H 384.42117 C 385.72784,682.64692 386.34117,682.14026 386.63451,680.80692 387.00784,679.18025 387.03451,677.92692 387.03451,675.82025 387.03451,673.90024 387.00784,672.67358 386.63451,671.02024 386.31451,669.63357 385.67451,669.20691 384.44784,669.20691 H 381.1945 V 689.3936 Z M 382.6345,681.20692 V 670.67357 H 384.2345 C 384.68784,670.67357 385.03451,670.86024 385.22117,671.66024 385.51451,672.94024 385.56784,673.90024 385.56784,675.79358 385.56784,678.08692 385.54117,679.02025 385.22117,680.22025 385.00784,681.02025 384.71451,681.20692 384.2345,681.20692 Z"
           style="stroke:none"
           id="path616" /><path
           d="M 418.08119,689.3936 V 669.20691 H 415.65452 C 413.84118,682.86026 413.76118,683.47359 413.73452,683.98026 H 413.62785 C 413.60118,683.47359 413.52118,682.86026 411.76118,669.20691 H 409.30785 V 689.3936 H 410.61451 V 674.11358 C 410.61451,673.20691 410.61451,672.43358 410.58785,671.74024 H 410.69451 C 410.74785,672.78024 411.06785,674.54025 413.30785,689.3936 H 414.08118 C 416.29452,674.56691 416.56119,672.83358 416.66785,671.74024 H 416.77452 C 416.74785,672.43358 416.74785,673.20691 416.74785,674.11358 V 689.3936 Z"
           style="stroke:none"
           id="path618" /><path
           d="M 432.97789,684.14026 C 432.97789,686.51359 432.92455,686.99359 432.65789,687.58026 432.44455,688.06026 432.01788,688.22026 431.45788,688.22026 430.89788,688.22026 430.44455,688.06026 430.23122,687.58026 429.96455,686.99359 429.91121,686.51359 429.91121,684.14026 V 669.20691 H 428.41788 V 684.14026 C 428.41788,686.86026 428.49788,687.58026 428.89788,688.4336 429.32455,689.42026 430.15122,689.74026 431.43122,689.74026 432.71122,689.74026 433.53789,689.3936 433.96455,688.4336 434.36455,687.58026 434.41789,686.83359 434.41789,684.14026 V 669.20691 H 432.97789 Z"
           style="stroke:none"
           id="path620" /><path
           d="M 444.67457,682.64692 C 444.62124,683.15359 444.5679,683.84692 444.5679,684.91359 444.5679,686.64693 444.70124,687.5536 444.94124,688.22026 445.34124,689.28693 445.92791,689.74026 447.23457,689.74026 448.48791,689.74026 449.12791,689.50026 449.55458,688.54026 449.92791,687.68693 450.14124,686.32693 450.14124,684.11359 450.14124,681.31359 450.03458,680.96692 449.84791,680.54025 449.66124,680.08692 449.47458,679.82025 449.04791,679.42025 448.46124,678.86025 447.04791,677.98025 446.59457,677.50025 446.38124,677.28692 446.22124,677.07358 446.11457,676.80692 445.92791,676.38025 445.90124,676.22025 445.90124,673.55358 445.90124,672.56691 445.95457,671.98024 446.08791,671.36691 446.27457,670.56691 446.59457,670.30024 447.26124,670.30024 447.98124,670.30024 448.32791,670.56691 448.51458,671.34024 448.64791,671.87358 448.72791,672.48691 448.72791,673.42024 448.72791,674.43358 448.67458,675.10025 448.62124,675.47358 H 449.90124 C 449.98124,675.04691 450.03458,674.27358 450.03458,673.10024 450.03458,671.76691 449.90124,670.83357 449.63458,670.16691 449.28791,669.31357 448.67458,668.86024 447.26124,668.86024 445.87457,668.86024 445.18124,669.31357 444.83457,670.48691 444.62124,671.18024 444.54124,672.11358 444.54124,673.39358 444.54124,676.03358 444.62124,676.67358 444.83457,677.28692 445.02124,677.76692 445.34124,678.16692 445.66124,678.48692 446.08791,678.94025 447.44791,679.84692 448.03457,680.43359 448.35458,680.75359 448.48791,680.88692 448.59458,681.18025 448.70124,681.47359 448.78124,681.68692 448.78124,684.11359 448.78124,686.03359 448.62124,687.10026 448.35458,687.7136 448.14124,688.1936 447.76791,688.2736 447.23457,688.2736 446.78124,688.2736 446.46124,688.14026 446.24791,687.68693 445.98124,687.12693 445.87457,686.54026 445.87457,684.67359 445.87457,683.71359 445.90124,683.10026 445.95457,682.64692 Z"
           style="stroke:none"
           id="path622" /><path
           d="M 461.97125,689.3936 V 669.20691 H 460.47791 V 689.3936 Z"
           style="stroke:none"
           id="path624" /><path
           d="M 476.81459,681.66025 C 476.84125,682.24692 476.84125,682.70026 476.84125,683.36692 476.84125,685.04693 476.70792,686.38026 476.46792,687.26026 476.28125,687.98026 475.98792,688.22026 475.37458,688.22026 474.60125,688.22026 474.28125,687.9536 474.09458,687.18026 473.85458,686.22026 473.74792,684.91359 473.74792,679.12692 473.74792,673.36691 473.82792,672.32691 474.09458,671.34024 474.28125,670.56691 474.57458,670.30024 475.29458,670.30024 475.93458,670.30024 476.33459,670.51357 476.52125,671.34024 476.68125,672.06024 476.81459,673.18024 476.81459,674.83358 476.81459,675.82025 476.81459,676.22025 476.78792,676.59358 H 478.17459 C 478.20125,676.22025 478.20125,675.82025 478.20125,674.80691 478.20125,672.83358 478.04125,671.58024 477.80125,670.70024 477.37459,669.12691 476.49459,668.86024 475.29458,668.86024 473.88125,668.86024 473.21458,669.28691 472.84125,670.48691 472.54791,671.44691 472.30791,672.43358 472.30791,679.12692 472.30791,685.36693 472.46791,686.91359 472.84125,688.08693 473.24125,689.3136 473.90792,689.74026 475.37458,689.74026 476.62792,689.74026 477.34792,689.36693 477.72125,688.16693 477.90792,687.58026 478.22792,686.27359 478.22792,683.34026 478.22792,682.83359 478.22792,682.27359 478.20125,681.66025 Z"
           style="stroke:none"
           id="path626" /></g></g></g></svg>
